<svg width="24" height="24" viewBox="0 0 24 24" fill="none" xmlns="http://www.w3.org/2000/svg">
<g clip-path="url(#clip0_390_488)">
<path d="M12.0183 24C18.6558 24 24.0365 18.6274 24.0365 12C24.0365 5.37258 18.6558 0 12.0183 0C5.38077 0 0 5.37258 0 12C0 18.6274 5.38077 24 12.0183 24Z" fill="#E0E0E0"/>
<path d="M12.0182 23.6353C18.5549 23.6353 23.8539 18.3443 23.8539 11.8176C23.8539 5.29093 18.5549 0 12.0182 0C5.48161 0 0.182617 5.29093 0.182617 11.8176C0.182617 18.3443 5.48161 23.6353 12.0182 23.6353Z" fill="white"/>
<mask id="mask0_390_488" style="mask-type:luminance" maskUnits="userSpaceOnUse" x="4" y="3" width="16" height="17">
<path d="M19.6895 10.4316H12.2009V13.5319H16.5114C16.1096 15.5015 14.4292 16.6322 12.2009 16.6322C9.57076 16.6322 7.45204 14.5167 7.45204 11.8905C7.45204 9.26439 9.57076 7.14889 12.2009 7.14889C13.3333 7.14889 14.3561 7.55011 15.1598 8.20665L17.4977 5.87229C16.073 4.63217 14.2466 3.86621 12.2009 3.86621C7.74428 3.86621 4.16437 7.44068 4.16437 11.8905C4.16437 16.3404 7.74428 19.9148 12.2009 19.9148C16.2192 19.9148 19.8721 16.9969 19.8721 11.8905C19.8721 11.4164 19.7991 10.9057 19.6895 10.4316Z" fill="white"/>
</mask>
<g mask="url(#mask0_390_488)">
<path d="M3.43378 16.6322V7.14893L9.64382 11.8906L3.43378 16.6322Z" fill="#FBBC05"/>
</g>
<mask id="mask1_390_488" style="mask-type:luminance" maskUnits="userSpaceOnUse" x="4" y="3" width="16" height="17">
<path d="M19.6895 10.4316H12.2009V13.5319H16.5114C16.1096 15.5015 14.4292 16.6322 12.2009 16.6322C9.57076 16.6322 7.45204 14.5167 7.45204 11.8905C7.45204 9.26439 9.57076 7.14889 12.2009 7.14889C13.3333 7.14889 14.3561 7.55011 15.1598 8.20665L17.4977 5.87229C16.073 4.63217 14.2466 3.86621 12.2009 3.86621C7.74428 3.86621 4.16437 7.44068 4.16437 11.8905C4.16437 16.3404 7.74428 19.9148 12.2009 19.9148C16.2192 19.9148 19.8721 16.9969 19.8721 11.8905C19.8721 11.4164 19.7991 10.9057 19.6895 10.4316Z" fill="white"/>
</mask>
<g mask="url(#mask1_390_488)">
<path d="M3.43378 7.14888L9.64382 11.8905L12.2009 9.6656L20.968 8.2431V3.13672H3.43378V7.14888Z" fill="#EA4335"/>
</g>
<mask id="mask2_390_488" style="mask-type:luminance" maskUnits="userSpaceOnUse" x="4" y="3" width="16" height="17">
<path d="M19.6895 10.4316H12.2009V13.5319H16.5114C16.1096 15.5015 14.4292 16.6322 12.2009 16.6322C9.57076 16.6322 7.45204 14.5167 7.45204 11.8905C7.45204 9.26439 9.57076 7.14889 12.2009 7.14889C13.3333 7.14889 14.3561 7.55011 15.1598 8.20665L17.4977 5.87229C16.073 4.63217 14.2466 3.86621 12.2009 3.86621C7.74428 3.86621 4.16437 7.44068 4.16437 11.8905C4.16437 16.3404 7.74428 19.9148 12.2009 19.9148C16.2192 19.9148 19.8721 16.9969 19.8721 11.8905C19.8721 11.4164 19.7991 10.9057 19.6895 10.4316Z" fill="white"/>
</mask>
<g mask="url(#mask2_390_488)">
<path d="M3.43378 16.6322L14.3927 8.2431L17.2785 8.60784L20.968 3.13672V20.6443H3.43378V16.6322Z" fill="#34A853"/>
</g>
<mask id="mask3_390_488" style="mask-type:luminance" maskUnits="userSpaceOnUse" x="4" y="3" width="16" height="17">
<path d="M19.6895 10.4316H12.2009V13.5319H16.5114C16.1096 15.5015 14.4292 16.6322 12.2009 16.6322C9.57076 16.6322 7.45204 14.5167 7.45204 11.8905C7.45204 9.26439 9.57076 7.14889 12.2009 7.14889C13.3333 7.14889 14.3561 7.55011 15.1598 8.20665L17.4977 5.87229C16.073 4.63217 14.2466 3.86621 12.2009 3.86621C7.74428 3.86621 4.16437 7.44068 4.16437 11.8905C4.16437 16.3404 7.74428 19.9148 12.2009 19.9148C16.2192 19.9148 19.8721 16.9969 19.8721 11.8905C19.8721 11.4164 19.7991 10.9057 19.6895 10.4316Z" fill="white"/>
</mask>
<g mask="url(#mask3_390_488)">
<path d="M20.968 20.6444L9.6438 11.8906L8.18262 10.7963L20.968 7.14893V20.6444Z" fill="#4285F4"/>
</g>
</g>
<defs>
<clipPath id="clip0_390_488">
<rect width="24" height="24" fill="white"/>
</clipPath>
</defs>
</svg>
