<svg width="24" height="24" viewBox="0 0 24 24" fill="none" xmlns="http://www.w3.org/2000/svg">
<g id="fi_1933005" clip-path="url(#clip0_599_6271)">
<path id="Vector" d="M8.75 17.6123V22.2503C8.75 22.5743 8.958 22.8613 9.266 22.9633C9.343 22.9883 9.422 23.0003 9.5 23.0003C9.734 23.0003 9.96 22.8903 10.104 22.6943L12.817 19.0023L8.75 17.6123Z" fill="white"/>
<path id="Vector_2" d="M23.685 0.139089C23.455 -0.0239114 23.153 -0.0459114 22.903 0.0850886L0.403045 11.8351C0.137044 11.9741 -0.0199555 12.2581 0.00204448 12.5571C0.0250445 12.8571 0.224045 13.1131 0.507045 13.2101L6.76205 15.3481L20.083 3.95809L9.77505 16.3771L20.258 19.9601C20.336 19.9861 20.418 20.0001 20.5 20.0001C20.636 20.0001 20.771 19.9631 20.89 19.8911C21.08 19.7751 21.209 19.5801 21.242 19.3611L23.992 0.861089C24.033 0.581089 23.915 0.303089 23.685 0.139089Z" fill="white"/>
</g>
<defs>
<clipPath id="clip0_599_6271">
<rect width="24" height="24" fill="white"/>
</clipPath>
</defs>
</svg>
