<svg width="16" height="17" viewBox="0 0 16 17" fill="none" xmlns="http://www.w3.org/2000/svg">
<path d="M15.5 8.5C15.5 9.14 14.7137 9.6675 14.5562 10.2575C14.3937 10.8675 14.805 11.7175 14.4963 12.2513C14.1825 12.7938 13.2387 12.8587 12.7987 13.2987C12.3587 13.7387 12.2938 14.6825 11.7513 14.9963C11.2175 15.305 10.3675 14.8937 9.7575 15.0562C9.1675 15.2137 8.64 16 8 16C7.36 16 6.8325 15.2137 6.2425 15.0562C5.6325 14.8937 4.7825 15.305 4.24875 14.9963C3.70625 14.6825 3.64125 13.7387 3.20125 13.2987C2.76125 12.8587 1.8175 12.7938 1.50375 12.2513C1.195 11.7175 1.60625 10.8675 1.44375 10.2575C1.28625 9.6675 0.5 9.14 0.5 8.5C0.5 7.86 1.28625 7.3325 1.44375 6.7425C1.60625 6.1325 1.195 5.2825 1.50375 4.74875C1.8175 4.20625 2.76125 4.14125 3.20125 3.70125C3.64125 3.26125 3.70625 2.3175 4.24875 2.00375C4.7825 1.695 5.6325 2.10625 6.2425 1.94375C6.8325 1.78625 7.36 1 8 1C8.64 1 9.1675 1.78625 9.7575 1.94375C10.3675 2.10625 11.2175 1.695 11.7513 2.00375C12.2938 2.3175 12.3587 3.26125 12.7987 3.70125C13.2387 4.14125 14.1825 4.20625 14.4963 4.74875C14.805 5.2825 14.3937 6.1325 14.5562 6.7425C14.7137 7.3325 15.5 7.86 15.5 8.5Z" fill="#2568EF"/>
<path d="M10.1675 6.265L7.31251 9.12L5.83251 7.64125C5.51126 7.32 4.99001 7.32 4.66876 7.64125C4.34751 7.9625 4.34751 8.48375 4.66876 8.805L6.74501 10.8813C7.05751 11.1938 7.56501 11.1938 7.87751 10.8813L11.33 7.42875C11.6513 7.1075 11.6513 6.58625 11.33 6.265C11.0088 5.94375 10.4888 5.94375 10.1675 6.265Z" fill="#FFFCEE"/>
</svg>
